HIERARCHY
ROOT hip
{
  OFFSET 0 0 0
  CHANNELS 6 Xposition Yposition Zposition Zrotation Yrotation Xrotation
  JOINT abdomen
  {
    OFFSET 0 20.6881 -0.73152
    CHANNELS 3 Zrotation Xrotation Yrotation
    JOINT chest
    {
      OFFSET 0 11.7043 -0.48768
      CHANNELS 3 Zrotation Xrotation Yrotation
      JOINT neck
      {
        OFFSET 0 22.1894 -2.19456
        CHANNELS 3 Zrotation Xrotation Yrotation
        JOINT head
        {
          OFFSET -0.24384 7.07133 1.2192
          CHANNELS 3 Zrotation Xrotation Yrotation
          JOINT leftEye
          {
            OFFSET 4.14528 8.04674 8.04672
            CHANNELS 3 Zrotation Xrotation Yrotation
            End Site
            {
              OFFSET 1 0 0
            }
          }
          JOINT rightEye
          {
            OFFSET -3.6576 8.04674 8.04672
            CHANNELS 3 Zrotation Xrotation Yrotation
            End Site
            {
              OFFSET 1 0 0
            }
          }
        }
      }
      JOINT rCollar
      {
        OFFSET -2.68224 19.2634 -4.8768
        CHANNELS 3 Zrotation Xrotation Yrotation
        JOINT rShldr
        {
          OFFSET -8.77824 -1.95073 1.46304
          CHANNELS 3 Zrotation Xrotation Yrotation
          JOINT rForeArm
          {
            OFFSET -28.1742 -1.7115 0.48768
            CHANNELS 3 Zrotation Xrotation Yrotation
            JOINT rHand
            {
              OFFSET -22.5879 0.773209 7.07136
              CHANNELS 3 Zrotation Xrotation Yrotation
              JOINT rThumb1
              {
                OFFSET -1.2192 -0.487915 3.41376
                CHANNELS 3 Zrotation Xrotation Yrotation
                JOINT rThumb2
                {
                  OFFSET -3.37035 -0.52449 3.41376
                  CHANNELS 3 Zrotation Xrotation Yrotation
                  End Site
                  {
                    OFFSET -1.78271 -1.18214 1.43049
                  }
                }
              }
              JOINT rIndex1
              {
                OFFSET -7.75947 0.938293 5.60832
                CHANNELS 3 Zrotation Xrotation Yrotation
                JOINT rIndex2
                {
                  OFFSET -2.54057 -0.884171 1.56538
                  CHANNELS 3 Zrotation Xrotation Yrotation
                  End Site
                  {
                    OFFSET -1.62519 -0.234802 1.16502
                  }
                }
              }
              JOINT rMid1
              {
                OFFSET -8.24714 1.18213 3.41376
                CHANNELS 3 Zrotation Xrotation Yrotation
                JOINT rMid2
                {
                  OFFSET -3.10165 -0.590103 1.0647
                  CHANNELS 3 Zrotation Xrotation Yrotation
                  End Site
                  {
                    OFFSET -2.48547 -0.328903 0.83742
                  }
                }
              }
              JOINT rRing1
              {
                OFFSET -8.82822 0.546677 1.51678
                CHANNELS 3 Zrotation Xrotation Yrotation
                JOINT rRing2
                {
                  OFFSET -2.60934 -0.819778 -0.0198488
                  CHANNELS 3 Zrotation Xrotation Yrotation
                  End Site
                  {
                    OFFSET -2.33842 -0.294052 0.168128
                  }
                }
              }
              JOINT rPinky1
              {
                OFFSET -8.27202 -0.0477905 -0.4584
                CHANNELS 3 Zrotation Xrotation Yrotation
                JOINT rPinky2
                {
                  OFFSET -1.82734 -0.647385 -0.700984
                  CHANNELS 3 Zrotation Xrotation Yrotation
                  End Site
                  {
                    OFFSET -1.69225 -0.51767 -0.607171
                  }
                }
              }
            }
          }
        }
      }
      JOINT lCollar
      {
        OFFSET 2.68224 19.2634 -4.8768
        CHANNELS 3 Zrotation Xrotation Yrotation
        JOINT lShldr
        {
          OFFSET 8.77824 -1.95073 1.46304
          CHANNELS 3 Zrotation Xrotation Yrotation
          JOINT lForeArm
          {
            OFFSET 28.1742 -1.7115 0.48768
            CHANNELS 3 Zrotation Xrotation Yrotation
            JOINT lHand
            {
              OFFSET 22.5879 0.773209 7.07136
              CHANNELS 3 Zrotation Xrotation Yrotation
              JOINT lThumb1
              {
                OFFSET 1.2192 -0.487915 3.41376
                CHANNELS 3 Zrotation Xrotation Yrotation
                JOINT lThumb2
                {
                  OFFSET 3.37035 -0.52449 3.41376
                  CHANNELS 3 Zrotation Xrotation Yrotation
                  End Site
                  {
                    OFFSET 1.78271 -1.18214 1.43049
                  }
                }
              }
              JOINT lIndex1
              {
                OFFSET 7.75947 0.938293 5.60832
                CHANNELS 3 Zrotation Xrotation Yrotation
                JOINT lIndex2
                {
                  OFFSET 2.54057 -0.884171 1.56538
                  CHANNELS 3 Zrotation Xrotation Yrotation
                  End Site
                  {
                    OFFSET 1.62519 -0.234802 1.16502
                  }
                }
              }
              JOINT lMid1
              {
                OFFSET 8.24714 1.18213 3.41376
                CHANNELS 3 Zrotation Xrotation Yrotation
                JOINT lMid2
                {
                  OFFSET 3.10165 -0.590103 1.0647
                  CHANNELS 3 Zrotation Xrotation Yrotation
                  End Site
                  {
                    OFFSET 2.48547 -0.328903 0.83742
                  }
                }
              }
              JOINT lRing1
              {
                OFFSET 8.82822 0.546677 1.51678
                CHANNELS 3 Zrotation Xrotation Yrotation
                JOINT lRing2
                {
                  OFFSET 2.60934 -0.819778 -0.0198488
                  CHANNELS 3 Zrotation Xrotation Yrotation
                  End Site
                  {
                    OFFSET 2.33842 -0.294052 0.168128
                  }
                }
              }
              JOINT lPinky1
              {
                OFFSET 8.27202 -0.0477905 -0.4584
                CHANNELS 3 Zrotation Xrotation Yrotation
                JOINT lPinky2
                {
                  OFFSET 1.82734 -0.647385 -0.700984
                  CHANNELS 3 Zrotation Xrotation Yrotation
                  End Site
                  {
                    OFFSET 1.69225 -0.51767 -0.607171
                  }
                }
              }
            }
          }
        }
      }
    }
  }
  JOINT rButtock
  {
    OFFSET -8.77824 4.35084 1.2192
    CHANNELS 3 Zrotation Xrotation Yrotation
    JOINT rThigh
    {
      OFFSET 0 -1.70687 -2.19456
      CHANNELS 3 Zrotation Xrotation Yrotation
      JOINT rShin
      {
        OFFSET 0 -36.8199 0.73152
        CHANNELS 3 Zrotation Xrotation Yrotation
        JOINT rFoot
        {
          OFFSET 0.73152 -45.1104 -5.12064
          CHANNELS 3 Zrotation Xrotation Yrotation
          End Site
          {
            OFFSET -1.1221 -3.69964 12.103
          }
        }
      }
    }
  }
  JOINT lButtock
  {
    OFFSET 8.77824 4.35084 1.2192
    CHANNELS 3 Zrotation Xrotation Yrotation
    JOINT lThigh
    {
      OFFSET 0 -1.70687 -2.19456
      CHANNELS 3 Zrotation Xrotation Yrotation
      JOINT lShin
      {
        OFFSET 0 -36.8199 0.73152
        CHANNELS 3 Zrotation Xrotation Yrotation
        JOINT lFoot
        {
          OFFSET -0.73152 -45.1104 -5.12064
          CHANNELS 3 Zrotation Xrotation Yrotation
          End Site
          {
            OFFSET 1.1221 -3.69964 12.103
          }
        }
      }
    }
  }
}
MOTION
Frames:	4
Frame Time:	0.03333
-22.691218135878444 71.28099203109741 -21.591967158019543 -5.390679359436035 61.954708099365234 -19.082820892333984 2.7806169986724854 15.277284622192383 7.542283058166504 0.296937495470047 -9.261354446411133 3.0554914474487305 -2.5037460327148438 11.270644187927246 -1.330981969833374 0.8804535269737244 -20.972496032714844 -4.259681224822998 -0.11579097807407379 0.031637564301490784 0.05586152896285057 0.07422497868537903 0.5952345728874207 -0.08735866099596024 0.7835749983787537 0.8906800150871277 0.9557729959487915 24.537160873413086 57.40241622924805 46.441062927246094 -25.84363555908203 -45.67251968383789 95.69505310058594 -6.003230571746826 -59.91010665893555 -10.835777282714844 1.0792179107666016 -0.2656165361404419 1.2439006567001343 0.8789374828338623 -0.07396531850099564 0.9184796214103699 -0.6792572140693665 -0.1911228597164154 -0.009687361307442188 8.052912712097168 5.998219013214111 0.21984349191188812 0.5898737907409668 0.6919443011283875 0.10859926044940948 3.9137723445892334 1.7940987348556519 1.4600064754486084 -0.13309688866138458 0.10888940095901489 -0.1012691855430603 8.990182876586914 0.8338845372200012 -0.008655427955091 -0.6731680631637573 0.641511857509613 -0.3194250762462616 2.9851584434509277 -0.98321932554245 -1.027312994003296 -1.111344814300537 0.8537036180496216 -0.13944242894649506 -69.15437316894531 19.65808868408203 -23.94017791748047 28.690736770629883 -41.95243835449219 -85.74423217773438 -0.34326615929603577 -12.294853210449219 1.4997671842575073 0.23660744726657867 0.023537542670965195 -0.9991641044616699 0.9655541181564331 -0.2316218614578247 0.813860297203064 -0.04035292565822601 0.5611771941184998 0.5379226207733154 -7.69556188583374 5.2036051750183105 -0.6113121509552002 0.17661398649215698 0.022350823506712914 0.6796141266822815 -3.0010902881622314 -0.10606539249420166 -0.42176157236099243 0.7942723631858826 -1.166043996810913 0.21590754389762878 -10.53250503540039 0.9743652939796448 -0.8179523348808289 -0.3566550016403198 -1.2589168548583984 1.3656913042068481 -2.7694082260131836 -0.6493662595748901 1.2805025577545166 2.2425198554992676 0.18929582834243774 -0.23186571896076202 3.972203016281128 -40.27948760986328 -5.569484233856201 -4.801878929138184 73.50592803955078 5.238866329193115 -15.992430686950684 -14.538625717163086 -34.49793243408203 0.6060574054718018 -2.2788496017456055 0.6144375205039978 33.483612060546875 -54.895530700683594 24.401147842407227 1.7401807308197021 85.25396728515625 -2.0904393196105957 2.8896336555480957 2.717427968978882 21.797836303710938
-23.694954765960574 70.5689013004303 -23.217455111443996 -8.70598030090332 67.98908233642578 -27.722352981567383 2.2529101371765137 14.756525993347168 8.086569786071777 0.7441099286079407 -8.636082649230957 2.7246339321136475 -4.5465264320373535 12.192601203918457 -3.4181723594665527 3.6246564388275146 -21.942495346069336 -8.35611629486084 0.10655573755502701 -0.22223813831806183 -0.2678343951702118 0.2005252093076706 0.3510722815990448 -0.36151012778282166 0.3838993012905121 1.2343518733978271 0.7312264442443848 21.019792556762695 51.98758316040039 52.49551773071289 -25.947603225708008 -45.61888885498047 95.19532775878906 -5.778534412384033 -59.47343063354492 -11.025083541870117 1.169585108757019 -0.40569591522216797 1.3306565284729004 0.7319111824035645 -0.22208483517169952 0.2552977204322815 -1.3177580833435059 -0.432356059551239 0.2671170234680176 8.092912673950195 6.296673774719238 -0.29844921827316284 1.123707890510559 0.9666679501533508 0.16811977326869965 3.7394535541534424 1.7374354600906372 1.6588284969329834 -0.1135639101266861 -0.14376509189605713 -0.27602916955947876 8.797627449035645 1.4061940908432007 -0.13625375926494598 -0.9112157225608826 0.9227146506309509 -0.38913214206695557 3.118856906890869 -0.9273013472557068 -0.5950795412063599 -1.0359607934951782 1.1863247156143188 -0.10405288636684418 -71.6468276977539 25.45564842224121 -22.117023468017578 27.861709594726562 -41.18852615356445 -84.800048828125 -0.486031711101532 -12.350248336791992 2.0490713119506836 0.1657419204711914 0.4776615798473358 -0.9232172966003418 1.6427414417266846 -0.17693284153938293 0.6818090081214905 0.10860143601894379 0.1642860323190689 0.3844303488731384 -7.364571571350098 5.695380210876465 -0.8527401089668274 0.03794844076037407 0.24456888437271118 0.8405018448829651 -2.9031665325164795 -0.08482985943555832 -0.899402379989624 0.389586865901947 -0.8435392379760742 0.04199892655014992 -10.527704238891602 1.0590358972549438 -0.7811588644981384 -0.47881844639778137 -1.2476927042007446 0.8051559925079346 -2.4865434169769287 -0.18726825714111328 1.3783166408538818 2.113635540008545 -0.17548400163650513 0.13660651445388794 3.4807915687561035 -38.0023193359375 -7.376526832580566 -7.3189287185668945 72.72660064697266 7.751667499542236 -16.6706485748291 -15.748906135559082 -35.150352478027344 0.8305136561393738 -2.522099733352661 0.3987962603569031 32.584747314453125 -55.96522521972656 23.710437774658203 -2.6625185012817383 85.42790222167969 1.9907435178756714 4.201799392700195 0.653712272644043 20.62666893005371
-25.305509148165584 69.53210830688477 -25.235447101294994 -13.919517517089844 73.03073120117188 -34.00579833984375 1.5912468433380127 14.544063568115234 8.565235137939453 1.1628923416137695 -8.103759765625 2.312906503677368 -6.591371536254883 13.140983581542969 -5.576792240142822 6.183696746826172 -23.409475326538086 -11.659138679504395 0.3221656382083893 -0.3756493330001831 -0.550072431564331 0.3354586958885193 0.0984618291258812 -0.2958584129810333 -0.005631532985717058 1.424448013305664 0.6366058588027954 16.25438690185547 48.156002044677734 59.84939193725586 -25.798906326293945 -46.778106689453125 97.1512451171875 -5.718670845031738 -59.82635498046875 -11.717340469360352 1.0000594854354858 -0.18562492728233337 1.1051579713821411 0.34858670830726624 -0.4345739781856537 -0.3475528657436371 -1.8066376447677612 -0.5657968521118164 0.7022737860679626 8.262076377868652 6.455758094787598 -0.824932873249054 1.608099102973938 1.0735598802566528 0.1862448900938034 3.561065673828125 1.7144739627838135 1.548277497291565 -0.07310479134321213 -0.31631603837013245 -0.6343761682510376 8.963447570800781 1.7082735300064087 -0.30315831303596497 -1.052964687347412 1.2215114831924438 -0.38376104831695557 3.0081119537353516 -0.5077091455459595 -0.17938806116580963 -0.7745895385742188 1.2306761741638184 -0.3316405713558197 -72.04765319824219 31.873130798339844 -22.768312454223633 26.944095611572266 -39.88776397705078 -82.99845123291016 -0.2863213121891022 -8.411493301391602 2.201704502105713 -0.15974856913089752 0.8105775117874146 -0.7787553668022156 2.1500661373138428 0.20882819592952728 0.327851265668869 0.19066698849201202 -0.5097471475601196 0.3270363211631775 -7.1764373779296875 6.399936199188232 -1.1878706216812134 -0.27332934737205505 0.2408968061208725 1.2275508642196655 -2.577552556991577 0.0376843698322773 -1.2388335466384888 -0.21089810132980347 -0.4831642508506775 -0.005444365553557873 -10.504389762878418 1.1042824983596802 -0.7354520559310913 -0.29857632517814636 -1.1310783624649048 0.00015828994219191372 -1.9839028120040894 0.31872066855430603 1.4796315431594849 1.7741807699203491 -0.5790467858314514 0.3868602514266968 3.3412907123565674 -35.445369720458984 -9.78388500213623 -9.219403266906738 72.29843139648438 9.677834510803223 -17.615680694580078 -17.6321964263916 -36.06465530395508 0.8725355863571167 -2.4302494525909424 0.030619407072663307 32.883628845214844 -57.937198638916016 24.35948944091797 -0.1858648657798767 86.02738189697266 -0.805172324180603 5.284958839416504 -1.5771503448486328 18.327409744262695
-27.67838421277702 68.14671754837036 -27.807089500129223 -18.24121856689453 72.51048278808594 -34.10506057739258 -0.02379786968231201 14.302873611450195 8.662825584411621 1.4792768955230713 -7.9948930740356445 1.7068408727645874 -8.60976505279541 14.127930641174316 -8.270841598510742 8.174325942993164 -25.671628952026367 -15.009349822998047 0.5017664432525635 -0.165583997964859 -0.5323622822761536 0.33951663970947266 -0.10526178777217865 -0.03486466780304909 -0.16810815036296844 1.2432966232299805 0.5277392864227295 10.098376274108887 42.02339553833008 69.64847564697266 -25.389190673828125 -48.29933547973633 100.10908508300781 -5.816215991973877 -59.723636627197266 -12.282971382141113 0.5827525854110718 0.13088861107826233 0.49742382764816284 -0.150310218334198 -0.3867892026901245 -0.6210843324661255 -1.8958420753479004 -0.5875545144081116 1.0474282503128052 8.602547645568848 6.327101230621338 -1.1969332695007324 2.0810728073120117 1.0531930923461914 0.22253644466400146 3.3700990676879883 1.632213830947876 1.0805553197860718 -0.0007973859901539981 -0.5873103737831116 -0.8877651691436768 9.14828872680664 1.5066041946411133 -0.25124043226242065 -0.7815225720405579 1.3878062963485718 -0.13092055916786194 2.8739569187164307 0.2637508809566498 0.04253578186035156 -0.6022255420684814 0.8915731906890869 -0.5971241593360901 -71.53642272949219 39.162925720214844 -22.931657791137695 26.35403060913086 -39.295982360839844 -81.66893768310547 0.1473533809185028 -4.586248874664307 2.35988187789917 -0.34368419647216797 0.6724344491958618 -0.4571721851825714 2.255770206451416 0.8461350202560425 -0.13077133893966675 0.35351964831352234 -1.1411234140396118 0.27692872285842896 -7.420151710510254 6.946577548980713 -1.3117270469665527 -0.5503088235855103 0.1440780609846115 1.6160516738891602 -2.252903699874878 0.22778001427650452 -1.2507961988449097 -0.5332557559013367 -0.12812404334545135 0.15460443496704102 -10.32698917388916 1.0783379077911377 -0.6547122001647949 -0.12100155651569366 -0.7881973385810852 -0.7888578176498413 -1.6088007688522339 0.32499098777770996 1.5019705295562744 1.3048484325408936 -0.7020815014839172 0.3695562183856964 2.2100749015808105 -35.65890884399414 -12.855995178222656 -10.71841049194336 74.60588836669922 11.296537399291992 -17.783628463745117 -18.919179916381836 -36.271507263183594 0.8298966884613037 -2.1536529064178467 -0.26016390323638916 30.98888397216797 -59.095584869384766 23.829879760742188 8.283031463623047 85.5165023803711 -9.554490089416504 6.112250804901123 -4.113032817840576 16.939369201660156
